<?xml version="1.0" standalone="no"?>
<!DOCTYPE svg PUBLIC "-//W3C//DTD SVG 20010904//EN"
 "http://www.w3.org/TR/2001/REC-SVG-20010904/DTD/svg10.dtd">
<svg version="1.0" xmlns="http://www.w3.org/2000/svg"
 width="564.000000pt" height="564.000000pt" viewBox="0 0 564.000000 564.000000"
 preserveAspectRatio="xMidYMid meet">
<metadata>
Created by potrace 1.14, written by Peter Selinger 2001-2017
</metadata>
<g transform="translate(0.000000,564.000000) scale(0.100000,-0.100000)"
fill="#000000" stroke="none">
<path d="M0 2820 l0 -2820 2820 0 2820 0 0 2820 0 2820 -2820 0 -2820 0 0
-2820z m3000 2072 c126 -30 295 -93 385 -145 28 -16 95 -73 150 -126 55 -54
168 -154 251 -223 149 -125 214 -199 214 -245 0 -12 -23 -41 -56 -72 -32 -28
-53 -51 -48 -52 33 -3 55 -9 104 -27 30 -11 107 -37 170 -57 227 -74 380 -146
595 -280 247 -154 318 -207 465 -354 140 -138 178 -187 55 -70 -96 92 -140
124 -505 369 -85 58 -336 139 -602 195 -207 44 -450 64 -723 60 -204 -3 -275
-17 -447 -85 -229 -90 -570 -270 -600 -317 -5 -6 -43 -40 -85 -76 -43 -35 -92
-77 -110 -93 -17 -16 -44 -40 -60 -53 -49 -42 -213 -192 -342 -313 -84 -79
-129 -114 -140 -111 -13 5 -13 3 -4 -7 9 -10 5 -18 -20 -39 -48 -40 -136 -156
-207 -271 -99 -163 -194 -291 -250 -339 -28 -24 -53 -41 -55 -39 -2 2 28 42
66 88 39 47 76 94 81 105 6 11 24 37 40 57 16 21 44 69 63 106 55 114 279 388
295 362 7 -12 30 9 225 199 148 144 297 280 365 333 50 40 30 34 -45 -11 -68
-42 -72 -42 -54 -10 9 19 9 19 -10 10 -34 -19 -43 -12 -22 15 12 15 21 31 21
36 0 6 80 91 177 189 112 112 182 190 188 210 9 25 26 41 71 66 57 32 156 80
219 107 17 7 47 21 68 30 21 9 48 16 60 16 12 0 47 9 77 20 89 33 223 69 284
76 39 5 53 10 44 16 -9 7 -7 8 7 4 11 -3 67 -6 125 -7 58 -1 110 -5 115 -10 6
-4 35 -13 65 -18 30 -5 83 -16 117 -24 67 -15 109 -6 59 13 -16 6 -31 8 -34 5
-3 -3 -15 1 -26 8 -30 20 -161 50 -194 45 -17 -2 -34 2 -42 10 -14 15 -41 15
-367 -4 -114 -7 -140 -2 -80 15 28 8 23 9 -38 10 -38 1 -81 4 -95 7 -15 3 -20
2 -13 -3 7 -5 -2 -9 -26 -9 -45 -2 -172 -43 -256 -84 -33 -16 -61 -27 -64 -25
-2 3 38 25 90 50 102 49 110 56 25 25 -30 -12 -60 -19 -67 -18 -8 2 -13 -2
-12 -8 1 -7 -6 -10 -16 -7 -10 3 -22 0 -25 -6 -4 -6 -14 -11 -22 -11 -8 0 -13
4 -9 9 3 5 0 13 -6 17 -7 4 -9 3 -6 -3 5 -9 -89 -63 -108 -63 -3 0 -64 -39
-137 -87 -73 -49 -140 -92 -148 -97 -20 -13 38 56 61 72 11 7 19 10 19 6 0 -5
10 6 23 23 13 17 76 86 140 153 64 67 114 127 111 132 -4 7 -2 8 4 4 7 -4 12
-3 12 2 0 6 23 24 50 42 28 18 50 34 50 37 0 11 -49 -11 -98 -44 -29 -20 -55
-33 -59 -29 -3 3 -4 7 -2 9 35 24 97 60 152 87 37 18 67 37 67 41 0 5 5 9 11
9 15 0 39 26 32 34 -4 3 1 6 11 6 9 0 14 5 11 10 -3 6 1 10 10 10 9 0 13 5 10
10 -3 6 0 10 7 10 8 0 7 4 -4 11 -21 12 -64 -5 -163 -63 -79 -47 -195 -135
-195 -148 0 -5 -21 -23 -47 -41 -27 -17 -83 -66 -125 -108 -81 -78 -100 -87
-48 -21 17 21 30 43 30 49 0 6 7 11 16 11 8 0 13 4 9 10 -3 5 11 33 32 62 48
68 93 179 99 243 4 49 4 49 -8 18 -7 -17 -16 -35 -20 -39 -5 -4 -8 -16 -8 -26
0 -31 -18 -20 -29 20 -10 36 -10 36 -5 -13 3 -34 2 -45 -5 -36 -8 12 -12 12
-24 2 -13 -10 -14 -7 -10 29 4 26 2 40 -6 40 -6 0 -11 -6 -11 -13 0 -7 -8 -20
-17 -29 -25 -24 -38 -40 -48 -63 -8 -20 -8 -20 -13 0 -2 10 1 21 7 23 16 5 14
22 -4 22 -14 0 -37 -60 -31 -83 1 -7 1 -9 -1 -4 -8 13 -23 8 -23 -8 0 -8 -4
-15 -10 -15 -5 0 -19 -19 -30 -42 -18 -37 -20 -39 -16 -13 18 102 26 168 21
173 -3 3 -5 -6 -6 -19 0 -23 -1 -23 -10 -4 -9 18 -9 18 -5 -3 3 -13 -3 -32
-12 -43 -9 -10 -24 -38 -33 -61 -9 -24 -23 -43 -30 -43 -8 0 -17 -7 -21 -15
-5 -12 -7 -11 -7 3 -1 10 4 27 9 38 6 11 8 24 4 31 -13 21 -36 -44 -41 -121
-3 -42 -10 -79 -15 -82 -5 -3 -11 -65 -13 -137 -2 -75 -8 -139 -15 -149 -11
-17 -11 -17 -6 1 15 46 5 332 -13 379 -8 20 -11 17 -34 -31 -17 -37 -26 -48
-29 -35 -3 15 -7 12 -23 -14 -10 -18 -22 -30 -27 -27 -4 3 -8 1 -8 -4 0 -5
-18 -28 -40 -53 -22 -24 -40 -47 -40 -51 0 -5 -7 -8 -16 -8 -8 0 -12 -5 -8
-11 4 -8 0 -9 -15 -4 -22 7 -30 -9 -8 -19 6 -3 2 -3 -10 0 -13 3 -23 1 -23 -5
0 -6 5 -11 10 -11 14 0 -11 -38 -29 -45 -10 -4 -9 0 4 15 10 11 15 23 11 28
-7 7 -30 -16 -119 -119 -21 -24 -70 -89 -108 -144 -38 -55 -76 -108 -84 -118
-8 -9 -15 -24 -15 -32 0 -8 -4 -15 -8 -15 -5 0 -15 -12 -22 -27 -8 -16 -22
-40 -32 -54 -10 -14 -15 -29 -11 -33 3 -3 1 -6 -5 -6 -7 0 -11 -3 -11 -7 1 -5
1 -15 0 -23 -1 -13 -2 -13 -12 0 -8 12 -9 10 -4 -7 3 -12 1 -24 -5 -28 -6 -3
-8 -11 -5 -16 4 -5 -1 -9 -9 -9 -10 0 -16 -9 -16 -24 0 -14 -7 -31 -15 -39 -8
-8 -12 -17 -9 -20 3 -3 -1 -18 -9 -34 -23 -43 -64 -143 -72 -178 -3 -11 -14
-54 -25 -95 -46 -174 -75 -422 -56 -477 5 -17 4 -23 -8 -23 -46 0 -63 273 -27
445 27 132 79 261 211 530 132 268 164 321 337 550 112 148 173 219 173 201 0
-4 19 14 41 41 23 26 69 75 101 108 33 33 95 110 138 170 91 129 138 177 200
204 33 14 52 32 68 60 45 79 143 141 276 172 111 26 418 21 546 -9z m2207
-112 c42 -25 61 -82 43 -134 -12 -39 -69 -106 -89 -106 -7 0 1 12 18 26 17 14
28 31 24 36 -3 7 -1 8 5 4 17 -10 32 27 32 79 0 69 -48 110 -104 89 -9 -3 -16
-13 -16 -21 0 -8 -14 -19 -31 -25 -20 -7 -27 -13 -19 -18 13 -8 -11 -38 -44
-57 -22 -12 -9 -49 33 -92 32 -32 28 -38 -12 -20 -13 6 -32 27 -41 46 -33 69
11 182 80 203 48 14 87 11 121 -10z m-702 -220 c3 -5 1 -10 -4 -10 -6 0 -11 5
-11 10 0 6 2 10 4 10 3 0 8 -4 11 -10z m-151 -102 c4 -24 3 -45 -4 -52 -16
-16 28 -56 62 -56 37 0 71 18 62 32 -4 7 -2 8 5 4 6 -4 19 -2 28 6 14 11 16
11 12 -2 -3 -8 -21 -23 -40 -33 -36 -19 -110 -18 -149 3 -31 17 -53 67 -45
106 5 29 10 34 34 34 26 0 29 -4 35 -42z m-3875 -282 c18 -32 7 -46 -35 -46
-23 0 -38 6 -46 20 -7 11 -18 20 -25 20 -19 0 -43 -41 -43 -73 0 -25 33 -87
51 -95 3 -1 15 -9 25 -17 18 -13 18 -14 -4 -12 -13 1 -39 18 -58 39 -41 46
-46 100 -13 142 26 33 52 45 100 45 28 1 38 -4 48 -23z m4089 -13 c-4 -22 -48
-31 -48 -10 0 19 10 27 32 27 13 0 18 -6 16 -17z m-3968 -38 c11 -18 20 -50
20 -73 0 -33 -6 -45 -35 -71 -37 -32 -81 -39 -135 -21 -23 8 -22 9 10 8 118
-2 184 100 109 168 -23 20 -25 36 -4 28 8 -3 24 -21 35 -39z m3959 -33 c-12
-5 -39 17 -39 30 0 5 11 1 24 -9 13 -10 20 -20 15 -21z m-3097 -81 c12 -19 16
-32 9 -30 -6 2 -22 20 -33 38 -12 19 -16 32 -9 30 6 -2 22 -20 33 -38z m-27
-61 c4 -6 -6 -7 -27 -3 -44 8 -48 13 -10 13 17 0 34 -4 37 -10z m-69 -75 c-11
-8 -25 -15 -30 -15 -6 0 -2 7 8 15 11 8 25 15 30 15 6 0 2 -7 -8 -15z m2328
-55 c41 -25 110 -84 131 -112 47 -59 159 -225 157 -231 -1 -5 2 -6 8 -2 16 10
39 -13 60 -60 11 -23 43 -66 73 -96 84 -84 127 -186 106 -248 -9 -26 -8 -37 9
-65 20 -35 30 -72 57 -231 8 -49 20 -92 25 -93 6 -2 8 -8 5 -12 -3 -5 5 -31
18 -57 14 -26 37 -84 52 -128 27 -77 29 -89 31 -285 2 -242 13 -321 58 -415
70 -144 203 -262 370 -326 112 -43 157 -72 216 -136 57 -62 64 -100 29 -143
-18 -21 -30 -25 -73 -24 -59 1 -143 34 -177 70 -31 33 -44 30 -18 -5 27 -37
36 -109 16 -136 -32 -43 -383 -76 -430 -41 -12 10 -14 15 -6 18 16 5 -29 88
-48 88 -8 0 -13 12 -13 30 0 31 -17 39 -37 19 -17 -17 -47 -3 -134 67 -44 35
-84 64 -87 64 -18 0 139 -144 171 -157 21 -9 36 -18 33 -20 -3 -3 15 -30 39
-60 46 -56 58 -100 32 -121 -16 -14 -100 -43 -152 -53 -22 -4 -62 -13 -90 -19
-52 -12 -92 -9 -184 11 -61 13 -121 60 -148 117 -20 41 -19 65 1 112 14 33 16
34 70 35 56 0 79 17 31 23 -29 4 -34 22 -6 22 10 0 24 6 30 13 9 12 -2 14 -61
16 -79 2 -115 15 -183 61 -56 39 -145 128 -145 147 0 7 -4 13 -10 13 -5 0 -10
6 -10 14 0 8 -4 17 -9 21 -10 6 5 -58 20 -87 6 -12 6 -18 0 -18 -13 0 19 -51
85 -138 28 -37 56 -66 61 -65 15 3 63 -130 63 -175 0 -23 5 -42 12 -44 25 -9
-21 -56 -84 -87 -75 -37 -161 -51 -315 -51 -79 0 -113 -4 -116 -12 -4 -8 -6
-7 -6 3 -1 11 -14 19 -41 23 -23 3 -39 10 -36 15 3 5 -3 16 -14 26 -15 13 -20
14 -20 5 0 -9 -5 -7 -15 6 -10 14 -14 15 -15 5 0 -12 -3 -12 -12 -3 -10 10
-10 17 -1 31 10 16 9 26 -5 53 -11 23 -15 52 -13 94 3 60 -12 94 -25 59 -5
-12 -9 -13 -14 -5 -4 7 -10 -4 -13 -25 -4 -26 -2 -42 8 -52 20 -19 20 -40 1
-24 -12 10 -16 8 -21 -11 -6 -16 -2 -26 14 -36 20 -14 20 -15 4 -43 -20 -33
-86 -69 -148 -80 -22 -5 -53 -11 -70 -14 -25 -5 -27 -4 -12 5 9 6 15 15 12 21
-4 5 3 9 14 9 12 0 21 5 21 10 0 6 -15 10 -34 10 -21 0 -36 6 -40 15 -4 11
-20 15 -56 15 -42 0 -50 3 -50 19 0 12 9 21 25 25 21 5 25 12 25 45 0 30 -6
44 -25 59 -15 12 -25 30 -25 46 0 14 -5 26 -11 26 -8 0 -10 12 -6 35 7 43 -17
95 -44 95 -14 0 -19 -7 -20 -27 0 -16 -3 -22 -6 -15 -2 6 -11 12 -20 12 -10 0
-12 -6 -8 -21 6 -19 5 -20 -8 -8 -9 8 -12 20 -7 29 4 8 8 44 8 80 2 79 36 188
81 259 18 28 34 51 36 51 2 0 3 -24 3 -52 0 -89 8 -105 51 -107 11 -1 11 3 -2
17 -29 32 -18 33 26 2 41 -29 46 -30 167 -32 113 -2 133 0 210 25 47 16 99 37
117 47 29 17 31 17 26 2 -4 -13 -2 -14 5 -4 5 7 8 33 7 58 0 25 3 44 9 44 7 0
6 3 -1 8 -6 4 -14 21 -18 37 -5 23 -4 26 4 15 9 -13 11 -13 11 3 0 9 -5 17
-12 17 -9 0 -9 3 0 12 17 17 15 28 -4 28 -13 0 -15 -12 -13 -72 2 -83 -8 -117
-45 -141 -29 -20 -204 -50 -258 -45 -22 2 -38 -1 -38 -7 0 -6 -3 -6 -8 1 -4 6
-30 14 -57 17 -28 3 -74 18 -103 33 -49 25 -52 29 -52 65 0 22 2 39 5 39 3 0
23 -9 45 -20 22 -11 50 -20 62 -19 18 1 15 3 -11 11 -18 5 -48 21 -67 36 -27
21 -31 29 -22 45 7 14 7 22 -2 27 -18 11 -5 58 41 150 27 53 39 90 38 116 l-1
39 -9 -39 c-8 -34 -74 -172 -89 -186 -3 -3 -24 -32 -46 -65 -44 -66 -53 -85
-117 -235 -21 -49 -38 -106 -36 -116 3 -9 -5 -48 -37 -202 -12 -55 -13 -80 -5
-104 6 -17 11 -47 10 -67 -1 -33 -2 -34 -10 -11 -6 18 -7 6 -5 -40 2 -36 7
-74 11 -84 6 -14 5 -17 -3 -12 -7 4 -12 2 -12 -6 -1 -18 -66 -49 -87 -41 -10
4 -14 2 -10 -4 8 -13 -55 -27 -83 -18 -10 3 -21 12 -24 20 -4 12 4 15 36 15
23 0 39 2 36 5 -3 3 -35 6 -72 6 -61 1 -80 9 -56 24 6 3 10 18 10 33 -1 27 -1
26 -40 -17 -52 -57 -107 -70 -145 -35 -40 37 -32 60 49 135 73 69 134 145 124
155 -3 2 -16 -4 -29 -16 -13 -11 -36 -29 -51 -40 -15 -12 -25 -27 -22 -34 3
-9 -9 -21 -35 -32 -29 -14 -42 -27 -47 -48 -6 -26 -7 -27 -22 -12 -14 14 -19
12 -49 -22 -18 -20 -33 -43 -33 -49 0 -7 -6 -14 -12 -15 -7 0 -18 -2 -24 -2
-6 -1 -25 -14 -43 -29 -18 -15 -41 -27 -51 -27 -9 0 -33 -6 -51 -13 -38 -16
-141 -11 -118 5 15 10 -7 7 -100 -11 -72 -15 -151 -5 -151 19 0 16 67 111 83
119 5 2 20 16 35 32 33 37 72 38 158 3 36 -14 68 -23 71 -20 3 3 -12 21 -33
40 -27 24 -39 43 -39 62 0 32 -43 62 -90 63 -16 1 -43 11 -58 24 -26 20 -28
28 -29 87 0 37 7 84 17 110 9 25 19 55 22 66 3 12 23 41 44 64 28 30 50 70 75
139 52 142 51 139 73 237 12 51 28 105 36 120 l15 29 0 -28 c0 -16 4 -26 9
-23 5 3 14 -1 21 -9 7 -8 27 -15 44 -15 l31 1 -31 13 c-35 15 -69 76 -59 106
15 46 -13 14 -45 -53 -19 -40 -37 -74 -40 -77 -3 -3 -14 -21 -24 -40 -26 -47
-56 -85 -56 -72 0 15 50 139 94 234 19 42 44 104 55 136 12 33 25 71 30 84 5
12 38 97 72 188 34 91 66 167 70 168 5 2 9 14 9 26 0 21 48 164 69 203 5 10
17 36 26 58 17 39 31 66 66 133 30 57 216 242 244 242 3 0 -4 -9 -15 -20 -11
-11 -25 -20 -32 -20 -6 0 -8 -3 -5 -7 4 -3 -1 -12 -11 -19 -9 -7 -14 -16 -10
-20 4 -4 14 -2 21 4 8 7 17 9 20 5 4 -3 7 1 7 9 0 9 12 24 27 33 25 17 26 17
19 0 -3 -10 7 -3 24 15 36 39 52 33 20 -7 -12 -15 -28 -41 -36 -58 -8 -16 -27
-48 -43 -70 -22 -29 -27 -43 -19 -53 8 -9 7 -11 -6 -6 -12 5 -16 0 -16 -17 0
-18 -3 -20 -9 -10 -7 11 -11 10 -20 -6 -5 -11 -7 -24 -3 -28 4 -5 -1 -5 -10
-2 -13 5 -18 1 -18 -14 0 -11 -4 -18 -8 -15 -11 7 -32 -31 -41 -75 -5 -22 -13
-34 -23 -33 -8 1 -15 -4 -15 -10 1 -61 -5 -85 -21 -91 -11 -3 -24 -17 -30 -30
-13 -28 2 -34 17 -7 6 9 11 13 11 8 0 -5 7 -3 15 4 13 11 15 8 15 -18 0 -32
-15 -51 -23 -30 -2 7 -9 -3 -14 -22 -6 -20 -16 -34 -23 -32 -8 2 -11 -5 -8
-22 3 -14 1 -23 -3 -20 -5 3 -9 -7 -9 -21 0 -15 -4 -24 -10 -20 -6 3 -10 -5
-10 -19 0 -15 -10 -32 -27 -45 -59 -44 -81 -77 -35 -52 17 9 21 7 25 -11 4
-12 4 -24 2 -27 -3 -2 -5 2 -5 9 0 7 -14 -8 -31 -33 -17 -26 -58 -68 -91 -94
-61 -48 -88 -86 -88 -123 0 -30 14 -25 50 20 18 22 81 80 140 130 59 49 149
134 200 190 107 115 136 129 90 43 -30 -56 -33 -84 -5 -47 13 16 14 16 9 2 -3
-10 -1 -18 5 -18 6 0 11 6 11 14 0 7 7 19 15 26 8 7 12 16 9 21 -3 5 1 9 9 9
21 0 72 57 55 63 -7 2 -4 3 8 1 20 -4 53 21 52 40 0 5 12 16 25 25 28 18 83
84 98 116 6 12 3 10 -8 -5 -70 -98 -120 -126 -202 -115 -60 8 -91 37 -98 93
-8 57 3 89 40 123 24 22 29 31 19 41 -20 20 -14 41 32 102 45 61 115 116 147
116 64 0 109 -64 110 -157 1 -93 17 -35 33 119 2 15 -5 45 -15 68 -64 142 -40
310 52 371 23 16 38 29 33 29 -12 0 20 21 88 59 55 30 58 31 77 14 10 -10 30
-27 44 -38 22 -17 26 -29 27 -70 0 -27 4 -45 8 -38 5 8 11 3 19 -13 10 -22 10
-24 -3 -14 -11 10 -14 9 -14 -4 0 -9 4 -16 8 -16 5 0 13 -17 20 -37 l11 -38
-5 35 c-4 32 -3 33 6 11 8 -18 7 -33 -1 -53 -13 -31 -3 -52 49 -106 15 -16 46
-49 68 -74 49 -53 109 -92 125 -82 7 4 51 11 98 16 76 8 112 12 132 17 14 3
75 98 80 126 l6 30 2 -32 c1 -21 -8 -42 -25 -62 -21 -25 -22 -30 -7 -24 35 13
59 51 61 99 1 25 6 63 12 84 7 26 7 47 0 65 -5 14 -10 42 -10 61 0 20 -5 45
-11 56 -10 18 -9 20 5 15 32 -13 15 18 -24 43 -22 13 -40 28 -40 32 0 4 -7 8
-15 8 -8 0 -15 7 -15 15 0 8 -6 15 -12 15 -9 0 -8 4 2 10 11 7 7 10 -17 10
-18 0 -33 5 -33 10 0 6 -6 10 -13 10 -7 0 -23 9 -36 21 -19 18 -33 20 -89 18
-75 -3 -202 1 -187 6 216 72 304 86 504 79 110 -4 140 -8 165 -24z m-2914 -60
c28 -21 19 -41 -10 -22 -11 7 -31 12 -44 12 -19 0 -23 -4 -19 -19 7 -26 -43
-102 -62 -95 -26 10 -17 -33 11 -55 29 -23 76 -21 126 5 23 12 56 53 50 62 -7
10 0 52 9 52 8 0 10 -16 6 -47 -4 -38 -12 -53 -37 -74 -35 -30 -88 -44 -123
-33 -64 19 -102 97 -74 150 40 75 115 104 167 64z m2580 -120 c0 -5 -2 -10 -4
-10 -3 0 -8 5 -11 10 -3 6 -1 10 4 10 6 0 11 -4 11 -10z m65 -10 c8 -13 -5
-13 -25 0 -13 8 -13 10 2 10 9 0 20 -4 23 -10z m-206 -45 c5 2 25 7 45 9 30 4
36 2 32 -10 -6 -16 5 -19 21 -3 17 17 81 -67 100 -130 19 -67 12 -129 -22
-187 -74 -127 -197 -126 -322 3 -74 76 -107 146 -94 202 14 62 33 86 72 89 18
1 36 6 39 11 3 4 29 7 57 7 40 -1 53 3 54 14 0 10 2 11 6 2 2 -6 8 -10 12 -7z
m278 -87 c-3 -8 -6 -5 -6 6 -1 11 2 17 5 13 3 -3 4 -12 1 -19z m633 -159 c0
-8 5 -7 17 2 15 12 16 12 10 -3 -3 -10 -2 -20 3 -23 6 -4 10 -11 10 -18 0 -16
-89 75 -90 91 0 7 11 2 25 -12 14 -14 25 -30 25 -37z m-1761 28 c-2 -2 -22
-15 -44 -31 l-40 -28 40 36 c22 19 42 33 44 30 2 -2 2 -5 0 -7z m16 -27 c-3
-5 -11 -10 -16 -10 -6 0 -7 5 -4 10 3 6 11 10 16 10 6 0 7 -4 4 -10z m1831
-92 c8 -16 13 -32 10 -35 -5 -6 -46 56 -46 70 0 15 20 -4 36 -35z m57 -35 c-7
-2 -19 -2 -25 0 -7 3 -2 5 12 5 14 0 19 -2 13 -5z m-1999 -98 c-29 -39 -44
-47 -22 -12 8 12 18 28 22 35 4 6 12 12 17 12 6 0 -2 -16 -17 -35z m-1954
-108 c0 -19 -20 -36 -36 -30 -17 6 -18 30 -1 36 22 10 37 7 37 -6z m-11 -75
c-12 -5 -39 17 -39 30 0 5 11 1 24 -9 13 -10 20 -20 15 -21z m4201 31 c0 -4
-9 -16 -20 -28 -25 -27 -18 -78 14 -93 16 -8 17 -11 5 -11 -9 -1 -27 7 -40 18
-41 33 -25 121 22 121 11 0 19 -3 19 -7z m229 -367 c13 -16 4 -46 -14 -46 -7
0 -18 7 -25 15 -10 12 -10 18 0 30 15 19 24 19 39 1z m-91 -142 c2 -14 -3 -23
-17 -27 -25 -6 -31 0 -31 30 0 20 5 24 23 21 13 -2 23 -11 25 -24z m-2673 -14
c-3 -5 -12 -10 -18 -10 -7 0 -6 4 3 10 19 12 23 12 15 0z m-1207 -108 c3 -17
-2 -22 -17 -22 -16 0 -21 6 -21 26 0 33 33 30 38 -4z m-18 -343 c0 -20 -24
-26 -35 -9 -4 6 -4 17 -1 25 7 20 36 7 36 -16z m-300 -64 c0 -8 -6 -15 -14
-15 -8 0 -16 7 -20 15 -4 10 1 15 14 15 11 0 20 -7 20 -15z m1010 -44 c0 -11
-8 -27 -17 -36 -9 -10 -17 -24 -18 -34 -3 -24 -16 -54 -33 -73 -8 -10 -12 -18
-8 -18 4 0 0 -10 -8 -22 -22 -31 -20 -41 5 -28 18 10 19 10 10 -7 -19 -33 -38
-53 -49 -53 -6 0 -17 -10 -23 -22 -7 -13 -29 -39 -49 -58 -21 -19 -46 -48 -56
-64 -18 -28 -18 -29 3 -22 12 4 24 2 28 -3 4 -7 14 -3 27 9 28 26 42 25 35 -1
-6 -23 19 -57 31 -44 4 4 1 10 -5 12 -20 7 -15 25 5 19 11 -4 23 4 37 24 25
37 39 39 30 3 -5 -23 -4 -26 6 -15 15 14 29 16 29 3 0 -5 -36 -46 -80 -91 -44
-45 -80 -85 -80 -89 0 -4 -12 -23 -26 -42 -25 -33 -26 -33 -22 -8 5 26 4 27
-44 23 -38 -2 -54 -9 -68 -27 -11 -14 -36 -32 -56 -42 -34 -16 -37 -16 -55 1
-10 9 -19 28 -19 41 0 26 -3 27 -84 13 -74 -12 -110 -5 -103 21 3 11 -6 31
-23 51 -16 18 -26 36 -23 41 6 11 142 74 177 83 14 3 26 10 26 16 0 5 4 7 9 4
5 -3 15 2 22 11 8 9 28 22 44 30 17 7 44 22 61 32 16 10 40 22 52 25 13 4 34
18 48 31 24 23 27 23 50 8 22 -14 24 -14 18 1 -3 9 -10 16 -15 16 -16 0 -9 15
26 53 19 21 35 41 35 45 0 4 10 18 23 32 39 44 97 127 97 141 0 11 2 11 10 -1
8 -12 10 -11 10 8 0 12 2 22 5 22 3 0 5 -9 5 -19z m-629 -58 c-43 -59 -50 -65
-60 -58 -6 3 -9 0 -5 -8 6 -17 -21 -41 -36 -32 -16 10 -2 25 17 18 13 -5 15
-2 10 11 -5 13 4 28 35 57 50 45 68 50 39 12z m2122 -330 c-7 -2 -21 -2 -30 0
-10 3 -4 5 12 5 17 0 24 -2 18 -5z m-1583 -13 c0 -5 -2 -10 -4 -10 -3 0 -8 5
-11 10 -3 6 -1 10 4 10 6 0 11 -4 11 -10z m1230 -289 c0 -11 3 -28 7 -38 6
-17 6 -17 -10 -1 -18 18 -23 58 -7 58 6 0 10 -9 10 -19z m1779 -93 c10 -30 9
-31 -4 -14 -8 11 -15 26 -15 33 0 22 8 14 19 -19z m-3186 -15 c-7 -2 -21 -2
-30 0 -10 3 -4 5 12 5 17 0 24 -2 18 -5z m872 -13 c3 -5 1 -10 -4 -10 -6 0
-11 5 -11 10 0 6 2 10 4 10 3 0 8 -4 11 -10z m605 -45 c0 -18 -4 -23 -15 -19
-8 4 -15 15 -15 25 0 10 7 19 15 19 9 0 15 -9 15 -25z m-493 -181 c-3 -3 -12
-4 -19 -1 -8 3 -5 6 6 6 11 1 17 -2 13 -5z"/>
<path d="M2388 4763 c7 -3 16 -2 19 1 4 3 -2 6 -13 5 -11 0 -14 -3 -6 -6z"/>
<path d="M2120 4555 c0 -8 -4 -15 -10 -15 -5 0 -10 -19 -9 -42 0 -40 1 -41 11
-18 6 14 17 38 25 54 16 36 16 36 -2 36 -8 0 -15 -7 -15 -15z"/>
<path d="M2331 4534 c0 -11 3 -14 6 -6 3 7 2 16 -1 19 -3 4 -6 -2 -5 -13z"/>
<path d="M2544 4244 c-18 -14 -18 -15 4 -4 12 6 22 13 22 15 0 8 -5 6 -26 -11z"/>
<path d="M2877 4208 c2 -5 13 -8 23 -8 10 0 21 3 23 8 3 4 -8 7 -23 7 -15 0
-26 -3 -23 -7z"/>
<path d="M2998 4203 c7 -3 16 -2 19 1 4 3 -2 6 -13 5 -11 0 -14 -3 -6 -6z"/>
<path d="M2830 4193 c-14 -3 -29 -9 -35 -15 -13 -12 46 1 60 13 5 5 7 8 5 8
-3 -1 -16 -4 -30 -6z"/>
<path d="M2663 4183 c9 -2 23 -2 30 0 6 3 -1 5 -18 5 -16 0 -22 -2 -12 -5z"/>
<path d="M1520 4000 c-6 -11 -8 -20 -6 -20 3 0 10 9 16 20 6 11 8 20 6 20 -3
0 -10 -9 -16 -20z"/>
<path d="M2535 3683 c-27 -14 -64 -36 -81 -49 -17 -13 -36 -24 -41 -24 -12 0
-168 -114 -178 -130 -12 -20 13 -10 50 20 21 17 99 69 174 117 152 96 148 93
135 93 -5 -1 -31 -13 -59 -27z"/>
<path d="M1126 3363 c-6 -14 -5 -15 5 -6 7 7 10 15 7 18 -3 3 -9 -2 -12 -12z"/>
<path d="M1106 3323 c-6 -14 -5 -15 5 -6 7 7 10 15 7 18 -3 3 -9 -2 -12 -12z"/>
<path d="M2420 3099 c0 -24 23 -21 28 4 2 10 -3 17 -12 17 -10 0 -16 -9 -16
-21z"/>
<path d="M2467 3083 c-4 -3 -7 -11 -7 -17 0 -6 5 -5 12 2 6 6 9 14 7 17 -3 3
-9 2 -12 -2z"/>
<path d="M2358 3053 c-50 -55 -113 -190 -78 -168 7 4 7 -3 0 -19 -12 -31 -6
-32 54 -6 31 14 46 27 46 40 0 10 5 22 12 26 8 5 9 0 6 -14 -8 -31 -2 -27 16
8 12 26 13 34 1 56 -16 32 -8 65 18 72 18 5 18 6 -4 18 -34 19 -42 17 -71 -13z"/>
<path d="M2076 2895 c-3 -8 -1 -15 4 -15 6 0 10 7 10 15 0 8 -2 15 -4 15 -2 0
-6 -7 -10 -15z"/>
<path d="M2222 2840 c0 -14 2 -19 5 -12 2 6 2 18 0 25 -3 6 -5 1 -5 -13z"/>
<path d="M3260 2758 c0 -6 -17 -8 -42 -4 -27 3 -34 2 -18 -2 15 -5 20 -11 13
-15 -6 -4 -18 -4 -27 -1 -9 3 -28 3 -44 -2 l-27 -7 30 -6 c19 -4 30 -13 29
-23 -1 -11 11 -18 45 -23 94 -14 117 -21 141 -45 13 -13 15 -20 7 -24 -7 -2 7
-5 30 -5 41 -1 42 -2 67 -57 14 -31 26 -64 27 -73 0 -10 2 -11 6 -4 5 14 -21
98 -43 142 -8 14 -14 33 -14 41 -1 24 -22 45 -75 75 -60 33 -105 48 -105 33z
m170 -138 c0 -5 -4 -10 -10 -10 -5 0 -10 5 -10 10 0 6 5 10 10 10 6 0 10 -4
10 -10z"/>
<path d="M3698 2644 c-24 -13 -26 -17 -16 -34 7 -11 18 -20 24 -20 6 0 19 -9
29 -20 10 -11 20 -18 23 -15 3 2 13 -7 24 -20 11 -14 27 -25 37 -25 9 0 23 -6
30 -12 12 -11 13 -9 7 7 -4 10 -10 38 -13 62 -3 24 -10 43 -14 43 -5 0 -9 8
-10 18 0 11 -2 12 -6 4 -4 -10 -8 -10 -20 0 -19 15 -43 19 -43 7 0 -5 -7 -9
-16 -9 -14 0 -14 3 -4 15 16 19 3 19 -32 -1z m87 -52 c-6 -8 -35 12 -35 25 0
8 5 11 10 8 6 -3 10 0 11 7 1 7 4 2 8 -12 4 -14 7 -26 6 -28z m52 -69 c-8 -7
-37 9 -31 19 3 5 12 4 20 -3 8 -6 13 -14 11 -16z"/>
<path d="M3292 2621 c-7 -4 -39 -6 -69 -4 -31 2 -66 0 -77 -6 -12 -5 -30 -12
-41 -14 -11 -3 -3 -5 18 -6 58 -2 227 21 227 31 0 10 -41 10 -58 -1z"/>
<path d="M1930 2520 c0 -5 5 -10 11 -10 5 0 7 5 4 10 -3 6 -8 10 -11 10 -2 0
-4 -4 -4 -10z"/>
<path d="M2560 2481 c0 -8 -109 -107 -205 -186 -276 -226 -336 -319 -334 -513
2 -90 2 -93 9 -39 4 31 24 98 45 148 31 74 55 110 131 199 51 59 114 124 139
144 67 51 131 111 138 130 4 9 13 16 22 16 8 0 15 3 16 8 3 30 10 47 28 63 19
18 28 39 16 39 -3 0 -5 -4 -5 -9z"/>
<path d="M3511 2240 c-2 -71 -10 -100 -27 -100 -10 0 -7 -12 12 -42 15 -23 33
-55 41 -72 11 -25 13 -26 9 -6 -5 22 -20 145 -29 240 -3 23 -4 16 -6 -20z"/>
<path d="M3896 2210 c4 -19 11 -46 16 -60 5 -14 9 -27 8 -29 -1 -2 2 -7 7 -10
5 -3 23 -42 41 -85 37 -92 119 -229 133 -221 5 4 9 16 9 28 0 13 7 33 16 45
13 19 13 22 0 22 -8 0 -16 -6 -19 -12 -3 -10 -7 -10 -20 1 -23 19 -12 31 28
31 24 0 39 7 54 26 12 15 21 32 21 38 0 6 -7 1 -15 -11 -19 -27 -64 -43 -91
-32 -27 9 -57 51 -90 123 -13 30 -31 56 -38 59 -8 3 -22 27 -32 54 -22 61 -36
78 -28 33z"/>
<path d="M2440 2075 c-7 -8 -16 -12 -21 -9 -5 3 -6 -2 -3 -9 3 -10 -12 -28
-42 -51 -52 -40 -52 -48 -1 -14 18 11 45 38 61 60 27 37 31 53 6 23z"/>
<path d="M3100 2027 c0 -16 23 -52 61 -94 21 -23 41 -53 45 -67 3 -14 10 -26
14 -26 5 0 13 -12 18 -27 6 -16 11 -22 11 -14 1 20 -55 114 -90 152 -16 18
-36 44 -44 58 -8 14 -14 22 -15 18z"/>
<path d="M2917 1993 c-8 -10 -19 -30 -22 -45 -7 -26 -25 -40 -25 -18 0 5 -10
18 -22 30 l-22 20 -18 -28 c-10 -15 -18 -34 -18 -43 0 -18 31 -49 49 -49 7 0
3 8 -9 18 -18 15 -21 24 -15 50 3 18 9 32 11 32 3 0 17 -14 32 -31 l26 -31 22
51 c13 28 27 51 33 51 5 0 26 -9 45 -21 20 -12 36 -18 36 -15 0 8 -62 46 -76
46 -6 0 -18 -8 -27 -17z"/>
<path d="M2748 1930 c-7 -24 -3 -38 8 -28 3 4 4 17 2 30 l-3 23 -7 -25z"/>
<path d="M2989 1933 c-13 -16 -12 -17 4 -4 16 13 21 21 13 21 -2 0 -10 -8 -17
-17z"/>
<path d="M3000 1873 c14 -3 29 -10 33 -17 6 -7 7 -6 4 4 -2 8 -16 16 -33 17
-25 1 -26 0 -4 -4z"/>
<path d="M1884 1852 c-12 -9 -43 -60 -68 -112 -26 -52 -54 -108 -62 -123 -17
-34 -19 -61 -3 -51 9 5 10 -1 5 -20 -4 -18 -3 -25 4 -21 5 3 10 11 10 17 0 6
12 21 28 34 25 22 28 23 40 7 7 -11 12 -12 12 -4 0 7 16 45 35 85 71 148 70
247 -1 188z"/>
<path d="M2801 1839 c-15 -6 -21 -14 -17 -25 3 -9 6 -19 6 -24 0 -14 51 -70
63 -70 12 0 57 63 57 77 0 5 -14 -8 -30 -27 l-30 -35 -25 28 c-31 35 -33 67
-5 67 11 0 20 5 20 10 0 12 -7 12 -39 -1z"/>
<path d="M3022 1820 c0 -14 2 -19 5 -12 2 6 2 18 0 25 -3 6 -5 1 -5 -13z"/>
<path d="M2006 1645 c-4 -19 -14 -41 -22 -50 -8 -8 -13 -19 -10 -24 4 -5 -8
-21 -25 -35 -28 -24 -46 -30 -74 -27 -6 0 -10 -25 -11 -57 0 -65 -20 -307 -30
-367 -4 -22 -4 -37 -1 -34 4 3 16 58 27 122 22 132 52 224 104 322 20 37 36
76 36 85 0 10 7 34 15 53 17 42 18 47 6 47 -5 0 -12 -16 -15 -35z"/>
<path d="M4329 1469 c-9 -17 -17 -20 -44 -16 -44 7 -38 -10 15 -43 21 -13 37
-27 35 -31 -5 -8 55 -93 61 -87 2 3 -10 33 -27 68 -23 49 -29 71 -24 97 7 38
1 43 -16 12z"/>
<path d="M2590 1336 c0 -9 5 -16 10 -16 6 0 10 4 10 9 0 6 -4 13 -10 16 -5 3
-10 -1 -10 -9z"/>
<path d="M2235 1115 c-42 -47 -70 -88 -75 -110 -5 -20 -4 -33 1 -29 5 3 9 11
9 17 0 13 55 88 90 123 20 19 53 74 46 74 -2 0 -34 -34 -71 -75z"/>
<path d="M1580 1056 c0 -2 7 -7 16 -10 8 -3 12 -2 9 4 -6 10 -25 14 -25 6z"/>
<path d="M1677 934 c3 -7 9 -14 14 -14 14 0 10 17 -5 23 -10 4 -13 1 -9 -9z"/>
<path d="M3130 930 c0 -5 5 -10 11 -10 5 0 7 5 4 10 -3 6 -8 10 -11 10 -2 0
-4 -4 -4 -10z"/>
<path d="M3111 3511 c-21 -29 -28 -86 -13 -106 14 -19 42 -16 84 11 25 16 44
22 46 16 4 -13 52 6 52 21 0 5 -7 3 -16 -4 -14 -11 -18 -10 -30 6 -19 26 -18
54 4 62 14 6 13 8 -8 14 -14 4 -42 7 -62 8 -30 1 -41 -5 -57 -28z"/>
<path d="M1277 1633 c-4 -3 -7 -11 -7 -17 0 -6 5 -5 12 2 6 6 9 14 7 17 -3 3
-9 2 -12 -2z"/>
<path d="M1238 1563 c10 -4 10 -8 0 -21 -12 -15 -11 -16 4 -3 19 14 15 32 -5
30 -8 0 -8 -2 1 -6z"/>
<path d="M1300 1379 c0 -5 5 -7 10 -4 6 3 10 8 10 11 0 2 -4 4 -10 4 -5 0 -10
-5 -10 -11z"/>
<path d="M1098 1323 c7 -3 16 -2 19 1 4 3 -2 6 -13 5 -11 0 -14 -3 -6 -6z"/>
<path d="M1033 1284 c-19 -21 -26 -34 -17 -34 19 0 64 40 64 57 0 20 -12 14
-47 -23z"/>
<path d="M1110 1278 c0 -19 2 -20 10 -8 13 19 13 30 0 30 -5 0 -10 -10 -10
-22z"/>
</g>
</svg>
